<svg width="20" height="20" viewBox="0 0 20 20" fill="none" xmlns="http://www.w3.org/2000/svg">
<path fill-rule="evenodd" clip-rule="evenodd" d="M17 2C17.5128 2 17.9355 2.38604 17.9933 2.88338L18 3V17C18 17.5128 17.614 17.9355 17.1166 17.9933L17 18H3C2.48716 18 2.06449 17.614 2.00673 17.1166L2 17V3C2 2.48716 2.38604 2.06449 2.88338 2.00673L3 2H17ZM5.8 12.8C5.19249 12.8 4.7 13.2925 4.7 13.9C4.7 14.5075 5.19249 15 5.8 15C6.40751 15 6.9 14.5075 6.9 13.9C6.9 13.2925 6.40751 12.8 5.8 12.8ZM8.6 13.3H15.2V14.5H8.6V13.3ZM5.8 8.9C5.19249 8.9 4.7 9.39249 4.7 10C4.7 10.6075 5.19249 11.1 5.8 11.1C6.40751 11.1 6.9 10.6075 6.9 10C6.9 9.39249 6.40751 8.9 5.8 8.9ZM8.6 9.4H15.2V10.6H8.6V9.4ZM5.8 5C5.19249 5 4.7 5.49249 4.7 6.1C4.7 6.70751 5.19249 7.2 5.8 7.2C6.40751 7.2 6.9 6.70751 6.9 6.1C6.9 5.49249 6.40751 5 5.8 5ZM8.6 5.5H15.2V6.7H8.6V5.5Z" fill="#005657"/>
</svg>
