<svg width="20" height="20" viewBox="0 0 20 20" fill="none" xmlns="http://www.w3.org/2000/svg">
<path d="M6.25016 5.83333C7.17064 5.83333 7.91683 5.08714 7.91683 4.16667C7.91683 3.24619 7.17064 2.5 6.25016 2.5C5.32969 2.5 4.5835 3.24619 4.5835 4.16667C4.5835 5.08714 5.32969 5.83333 6.25016 5.83333Z" fill="#005657" stroke="#005657" stroke-width="1.66667" stroke-linecap="round" stroke-linejoin="round"/>
<path d="M13.7502 5.83333C14.6706 5.83333 15.4168 5.08714 15.4168 4.16667C15.4168 3.24619 14.6706 2.5 13.7502 2.5C12.8297 2.5 12.0835 3.24619 12.0835 4.16667C12.0835 5.08714 12.8297 5.83333 13.7502 5.83333Z" fill="#005657" stroke="#005657" stroke-width="1.66667" stroke-linecap="round" stroke-linejoin="round"/>
<path d="M4.1665 8.33398H8.33317L7.49984 17.5007H4.99984L4.1665 8.33398Z" fill="#005657" stroke="#005657" stroke-width="1.66667" stroke-linecap="round" stroke-linejoin="round"/>
<path d="M11.6665 8.33398H15.8332L14.9998 17.5007H12.4998L11.6665 8.33398Z" fill="#005657" stroke="#005657" stroke-width="1.66667" stroke-linecap="round" stroke-linejoin="round"/>
</svg>
