<svg width="18" height="18" viewBox="0 0 18 18" fill="none" xmlns="http://www.w3.org/2000/svg">
<path fill-rule="evenodd" clip-rule="evenodd" d="M10.635 0.877349L10.7051 0.694102C10.8159 0.404876 11.1286 0.247491 11.4269 0.330837C12.8854 0.738369 14.2129 1.50939 15.2919 2.56442C15.5128 2.78046 15.5335 3.12897 15.3398 3.36966L15.2172 3.52193C14.7613 4.08562 14.6997 4.87184 15.0622 5.49966C15.4006 6.08586 16.0461 6.42386 16.6952 6.37251L16.8538 6.35408L17.0477 6.32397C17.3532 6.27651 17.6447 6.46896 17.7211 6.76854C17.9057 7.49201 18 8.23989 18 8.99966C18 9.75043 17.9079 10.4896 17.7277 11.2051C17.652 11.5055 17.36 11.6989 17.0538 11.6514L16.8594 11.6277C16.1967 11.5821 15.559 11.9167 15.2224 12.4997C14.884 13.0859 14.914 13.8138 15.283 14.3503L15.3772 14.4771L15.4279 14.5398C15.6206 14.7778 15.6032 15.1227 15.3875 15.34C14.2923 16.4433 12.9294 17.2487 11.4269 17.6685C11.1286 17.7518 10.8159 17.5944 10.7051 17.3052L10.6353 17.1228C10.375 16.4461 9.72495 15.9997 9 15.9997C8.27505 15.9997 7.62497 16.4461 7.36504 17.122L7.29485 17.3052C7.18408 17.5944 6.87137 17.7518 6.57308 17.6685C5.11455 17.261 3.78705 16.4899 2.70812 15.4349C2.48719 15.2189 2.46647 14.8704 2.66024 14.6297L2.78282 14.4774C3.23868 13.9137 3.3003 13.1275 2.93782 12.4997C2.57535 11.8718 1.86365 11.5321 1.14619 11.6452L0.952333 11.6754C0.646828 11.7228 0.355277 11.5304 0.278852 11.2308C0.0942837 10.5073 0 9.75943 0 8.99966C0 8.23051 0.0966268 7.47356 0.285712 6.74182C0.363049 6.44253 0.655116 6.25098 0.960434 6.29931L1.30781 6.3543C2.02391 6.46723 2.7356 6.12749 3.09808 5.49966C3.46055 4.87184 3.39893 4.08562 2.94376 3.52277L2.75111 3.28543C2.55366 3.04217 2.57662 2.68794 2.80382 2.4722C3.8656 1.46401 5.15786 0.726268 6.57308 0.330837C6.87137 0.247491 7.18408 0.404876 7.29485 0.694102L7.36473 0.876563C7.62497 1.55319 8.27505 1.99966 9 1.99966C9.67969 1.99966 10.2972 1.60648 10.5764 1.01352L10.635 0.877349ZM9 11.9997C10.6569 11.9997 12 10.6565 12 8.99966C12 7.34281 10.6569 5.99966 9 5.99966C7.34315 5.99966 6 7.34281 6 8.99966C6 10.6565 7.34315 11.9997 9 11.9997Z" fill="#005657"/>
</svg>
