<svg width="18" height="16" viewBox="0 0 18 16" fill="none" xmlns="http://www.w3.org/2000/svg">
<path fill-rule="evenodd" clip-rule="evenodd" d="M6.6 0C4.44609 0 2.7 1.74609 2.7 3.9C2.7 6.05391 4.44609 7.8 6.6 7.8C8.75391 7.8 10.5 6.05391 10.5 3.9C10.5 1.74609 8.75391 0 6.6 0ZM15.3 3.9C15.3 1.74609 13.5539 0 11.4 0C10.9528 0 10.5231 0.0752807 10.1246 0.21394C11.0954 1.14245 11.7 2.45062 11.7 3.9C11.7 5.34938 11.0954 6.65755 10.123 7.58614C10.5231 7.72472 10.9528 7.8 11.4 7.8C13.5539 7.8 15.3 6.05391 15.3 3.9ZM17.9969 13.2992C17.9122 10.581 16.0836 8.93783 11.9412 8.80828L12.1674 8.95559C13.6656 9.97599 14.4 11.5344 14.4 13.5V15C14.4 15.3603 14.3134 15.7003 14.1599 16.0004L17 16L17.1166 15.9933C17.614 15.9355 18 15.5128 18 15V13.5L17.9969 13.2992ZM0 13.5C0 10.5442 1.96923 8.8 6.6 8.8C11.2308 8.8 13.2 10.5442 13.2 13.5V15C13.2 15.5523 12.7523 16 12.2 16L1.00341 16C0.451133 16.0019 0.00189351 15.5557 2.33646e-06 15.0014L0 13.5Z" fill="#005657"/>
</svg>
